<mxfile host="app.diagrams.net" agent="Mozilla/5.0 (Windows NT 10.0; Win64; x64) AppleWebKit/537.36 (KHTML, like Gecko) Chrome/136.0.0.0 Safari/537.36" version="27.0.3">
  <diagram name="Page-1" id="Bg2ILVUZCvkJHj1Jf9vQ">
    <mxGraphModel dx="1039" dy="-1575" grid="1" gridSize="10" guides="1" tooltips="1" connect="1" arrows="1" fold="1" page="1" pageScale="1" pageWidth="850" pageHeight="1100" math="0" shadow="0">
      <root>
        <object label="" id="0">
          <mxCell />
        </object>
        <mxCell id="1" parent="0" />
        <mxCell id="bGiGG2hmjnRHK1uj28jr-233" value="Listly" style="swimlane;fontStyle=1;align=center;verticalAlign=top;childLayout=stackLayout;horizontal=1;startSize=28.571428571428573;horizontalStack=0;resizeParent=1;resizeParentMax=0;resizeLast=0;collapsible=0;marginBottom=0;" parent="1" vertex="1">
          <mxGeometry y="2360" width="466" height="413.57142857142856" as="geometry" />
        </mxCell>
        <mxCell id="bGiGG2hmjnRHK1uj28jr-234" value="- Playlist playlist" style="text;strokeColor=none;fillColor=none;align=left;verticalAlign=top;spacingLeft=4;spacingRight=4;overflow=hidden;rotatable=0;points=[[0,0.5],[1,0.5]];portConstraint=eastwest;" parent="bGiGG2hmjnRHK1uj28jr-233" vertex="1">
          <mxGeometry y="28.571428571428573" width="466" height="29" as="geometry" />
        </mxCell>
        <mxCell id="bGiGG2hmjnRHK1uj28jr-235" value="- Scanner scanner" style="text;strokeColor=none;fillColor=none;align=left;verticalAlign=top;spacingLeft=4;spacingRight=4;overflow=hidden;rotatable=0;points=[[0,0.5],[1,0.5]];portConstraint=eastwest;" parent="bGiGG2hmjnRHK1uj28jr-233" vertex="1">
          <mxGeometry y="57.57142857142857" width="466" height="29" as="geometry" />
        </mxCell>
        <mxCell id="bGiGG2hmjnRHK1uj28jr-236" style="line;strokeWidth=1;fillColor=none;align=left;verticalAlign=middle;spacingTop=-1;spacingLeft=3;spacingRight=3;rotatable=0;labelPosition=right;points=[];portConstraint=eastwest;strokeColor=inherit;" parent="bGiGG2hmjnRHK1uj28jr-233" vertex="1">
          <mxGeometry y="86.57142857142857" width="466" height="8" as="geometry" />
        </mxCell>
        <mxCell id="bGiGG2hmjnRHK1uj28jr-237" value="+ main(String[])" style="text;strokeColor=none;fillColor=none;align=left;verticalAlign=top;spacingLeft=4;spacingRight=4;overflow=hidden;rotatable=0;points=[[0,0.5],[1,0.5]];portConstraint=eastwest;" parent="bGiGG2hmjnRHK1uj28jr-233" vertex="1">
          <mxGeometry y="94.57142857142857" width="466" height="29" as="geometry" />
        </mxCell>
        <mxCell id="bGiGG2hmjnRHK1uj28jr-238" value="+ handleCommand(Playlist, String)" style="text;strokeColor=none;fillColor=none;align=left;verticalAlign=top;spacingLeft=4;spacingRight=4;overflow=hidden;rotatable=0;points=[[0,0.5],[1,0.5]];portConstraint=eastwest;" parent="bGiGG2hmjnRHK1uj28jr-233" vertex="1">
          <mxGeometry y="123.57142857142857" width="466" height="29" as="geometry" />
        </mxCell>
        <mxCell id="bGiGG2hmjnRHK1uj28jr-239" value="+ parseExtendedCommand(Playlist, char, String, Runnable)" style="text;strokeColor=none;fillColor=none;align=left;verticalAlign=top;spacingLeft=4;spacingRight=4;overflow=hidden;rotatable=0;points=[[0,0.5],[1,0.5]];portConstraint=eastwest;" parent="bGiGG2hmjnRHK1uj28jr-233" vertex="1">
          <mxGeometry y="152.57142857142856" width="466" height="29" as="geometry" />
        </mxCell>
        <mxCell id="bGiGG2hmjnRHK1uj28jr-240" value="+ displayUI(Playlist)" style="text;strokeColor=none;fillColor=none;align=left;verticalAlign=top;spacingLeft=4;spacingRight=4;overflow=hidden;rotatable=0;points=[[0,0.5],[1,0.5]];portConstraint=eastwest;" parent="bGiGG2hmjnRHK1uj28jr-233" vertex="1">
          <mxGeometry y="181.57142857142856" width="466" height="29" as="geometry" />
        </mxCell>
        <mxCell id="bGiGG2hmjnRHK1uj28jr-241" value="+ printHeader()" style="text;strokeColor=none;fillColor=none;align=left;verticalAlign=top;spacingLeft=4;spacingRight=4;overflow=hidden;rotatable=0;points=[[0,0.5],[1,0.5]];portConstraint=eastwest;" parent="bGiGG2hmjnRHK1uj28jr-233" vertex="1">
          <mxGeometry y="210.57142857142856" width="466" height="29" as="geometry" />
        </mxCell>
        <mxCell id="bGiGG2hmjnRHK1uj28jr-242" value="+ printOptions()" style="text;strokeColor=none;fillColor=none;align=left;verticalAlign=top;spacingLeft=4;spacingRight=4;overflow=hidden;rotatable=0;points=[[0,0.5],[1,0.5]];portConstraint=eastwest;" parent="bGiGG2hmjnRHK1uj28jr-233" vertex="1">
          <mxGeometry y="239.57142857142856" width="466" height="29" as="geometry" />
        </mxCell>
        <mxCell id="bGiGG2hmjnRHK1uj28jr-243" value="+ printWarn(String)" style="text;strokeColor=none;fillColor=none;align=left;verticalAlign=top;spacingLeft=4;spacingRight=4;overflow=hidden;rotatable=0;points=[[0,0.5],[1,0.5]];portConstraint=eastwest;" parent="bGiGG2hmjnRHK1uj28jr-233" vertex="1">
          <mxGeometry y="268.57142857142856" width="466" height="29" as="geometry" />
        </mxCell>
        <mxCell id="bGiGG2hmjnRHK1uj28jr-244" value="+ readInput()" style="text;strokeColor=none;fillColor=none;align=left;verticalAlign=top;spacingLeft=4;spacingRight=4;overflow=hidden;rotatable=0;points=[[0,0.5],[1,0.5]];portConstraint=eastwest;" parent="bGiGG2hmjnRHK1uj28jr-233" vertex="1">
          <mxGeometry y="297.57142857142856" width="466" height="29" as="geometry" />
        </mxCell>
        <mxCell id="bGiGG2hmjnRHK1uj28jr-245" value="+ clearScreen()" style="text;strokeColor=none;fillColor=none;align=left;verticalAlign=top;spacingLeft=4;spacingRight=4;overflow=hidden;rotatable=0;points=[[0,0.5],[1,0.5]];portConstraint=eastwest;" parent="bGiGG2hmjnRHK1uj28jr-233" vertex="1">
          <mxGeometry y="326.57142857142856" width="466" height="29" as="geometry" />
        </mxCell>
        <mxCell id="bGiGG2hmjnRHK1uj28jr-246" value="+ sleep()" style="text;strokeColor=none;fillColor=none;align=left;verticalAlign=top;spacingLeft=4;spacingRight=4;overflow=hidden;rotatable=0;points=[[0,0.5],[1,0.5]];portConstraint=eastwest;" parent="bGiGG2hmjnRHK1uj28jr-233" vertex="1">
          <mxGeometry y="355.57142857142856" width="466" height="29" as="geometry" />
        </mxCell>
        <mxCell id="bGiGG2hmjnRHK1uj28jr-247" value="+ requireArgs(String, String)" style="text;strokeColor=none;fillColor=none;align=left;verticalAlign=top;spacingLeft=4;spacingRight=4;overflow=hidden;rotatable=0;points=[[0,0.5],[1,0.5]];portConstraint=eastwest;" parent="bGiGG2hmjnRHK1uj28jr-233" vertex="1">
          <mxGeometry y="384.57142857142856" width="466" height="29" as="geometry" />
        </mxCell>
        <mxCell id="bGiGG2hmjnRHK1uj28jr-248" value="Playlist" style="swimlane;fontStyle=1;align=center;verticalAlign=top;childLayout=stackLayout;horizontal=1;startSize=26.56;horizontalStack=0;resizeParent=1;resizeParentMax=0;resizeLast=0;collapsible=0;marginBottom=0;" parent="1" vertex="1">
          <mxGeometry x="590" y="2360" width="338" height="682.56" as="geometry" />
        </mxCell>
        <mxCell id="bGiGG2hmjnRHK1uj28jr-249" value="- LinkedList songs" style="text;strokeColor=none;fillColor=none;align=left;verticalAlign=top;spacingLeft=4;spacingRight=4;overflow=hidden;rotatable=0;points=[[0,0.5],[1,0.5]];portConstraint=eastwest;" parent="bGiGG2hmjnRHK1uj28jr-248" vertex="1">
          <mxGeometry y="26.56" width="338" height="27" as="geometry" />
        </mxCell>
        <mxCell id="bGiGG2hmjnRHK1uj28jr-250" value="- Node currentNode" style="text;strokeColor=none;fillColor=none;align=left;verticalAlign=top;spacingLeft=4;spacingRight=4;overflow=hidden;rotatable=0;points=[[0,0.5],[1,0.5]];portConstraint=eastwest;" parent="bGiGG2hmjnRHK1uj28jr-248" vertex="1">
          <mxGeometry y="53.56" width="338" height="27" as="geometry" />
        </mxCell>
        <mxCell id="bGiGG2hmjnRHK1uj28jr-251" value="- boolean isLoopingSong" style="text;strokeColor=none;fillColor=none;align=left;verticalAlign=top;spacingLeft=4;spacingRight=4;overflow=hidden;rotatable=0;points=[[0,0.5],[1,0.5]];portConstraint=eastwest;" parent="bGiGG2hmjnRHK1uj28jr-248" vertex="1">
          <mxGeometry y="80.56" width="338" height="27" as="geometry" />
        </mxCell>
        <mxCell id="bGiGG2hmjnRHK1uj28jr-252" value="- Clip currentClip" style="text;strokeColor=none;fillColor=none;align=left;verticalAlign=top;spacingLeft=4;spacingRight=4;overflow=hidden;rotatable=0;points=[[0,0.5],[1,0.5]];portConstraint=eastwest;" parent="bGiGG2hmjnRHK1uj28jr-248" vertex="1">
          <mxGeometry y="107.56" width="338" height="27" as="geometry" />
        </mxCell>
        <mxCell id="bGiGG2hmjnRHK1uj28jr-253" value="- AudioInputStream currentAudioStream" style="text;strokeColor=none;fillColor=none;align=left;verticalAlign=top;spacingLeft=4;spacingRight=4;overflow=hidden;rotatable=0;points=[[0,0.5],[1,0.5]];portConstraint=eastwest;" parent="bGiGG2hmjnRHK1uj28jr-248" vertex="1">
          <mxGeometry y="134.56" width="338" height="27" as="geometry" />
        </mxCell>
        <mxCell id="bGiGG2hmjnRHK1uj28jr-254" value="- boolean isPlaying" style="text;strokeColor=none;fillColor=none;align=left;verticalAlign=top;spacingLeft=4;spacingRight=4;overflow=hidden;rotatable=0;points=[[0,0.5],[1,0.5]];portConstraint=eastwest;" parent="bGiGG2hmjnRHK1uj28jr-248" vertex="1">
          <mxGeometry y="161.56" width="338" height="27" as="geometry" />
        </mxCell>
        <mxCell id="bGiGG2hmjnRHK1uj28jr-255" style="line;strokeWidth=1;fillColor=none;align=left;verticalAlign=middle;spacingTop=-1;spacingLeft=3;spacingRight=3;rotatable=0;labelPosition=right;points=[];portConstraint=eastwest;strokeColor=inherit;" parent="bGiGG2hmjnRHK1uj28jr-248" vertex="1">
          <mxGeometry y="188.56" width="338" height="8" as="geometry" />
        </mxCell>
        <mxCell id="bGiGG2hmjnRHK1uj28jr-256" value="+ addSong(String)" style="text;strokeColor=none;fillColor=none;align=left;verticalAlign=top;spacingLeft=4;spacingRight=4;overflow=hidden;rotatable=0;points=[[0,0.5],[1,0.5]];portConstraint=eastwest;" parent="bGiGG2hmjnRHK1uj28jr-248" vertex="1">
          <mxGeometry y="196.56" width="338" height="27" as="geometry" />
        </mxCell>
        <mxCell id="bGiGG2hmjnRHK1uj28jr-257" value="+ addSingleSong(String)" style="text;strokeColor=none;fillColor=none;align=left;verticalAlign=top;spacingLeft=4;spacingRight=4;overflow=hidden;rotatable=0;points=[[0,0.5],[1,0.5]];portConstraint=eastwest;" parent="bGiGG2hmjnRHK1uj28jr-248" vertex="1">
          <mxGeometry y="223.56" width="338" height="27" as="geometry" />
        </mxCell>
        <mxCell id="bGiGG2hmjnRHK1uj28jr-258" value="+ removeSong(String)" style="text;strokeColor=none;fillColor=none;align=left;verticalAlign=top;spacingLeft=4;spacingRight=4;overflow=hidden;rotatable=0;points=[[0,0.5],[1,0.5]];portConstraint=eastwest;" parent="bGiGG2hmjnRHK1uj28jr-248" vertex="1">
          <mxGeometry y="250.56" width="338" height="27" as="geometry" />
        </mxCell>
        <mxCell id="bGiGG2hmjnRHK1uj28jr-259" value="+ play(Runnable)" style="text;strokeColor=none;fillColor=none;align=left;verticalAlign=top;spacingLeft=4;spacingRight=4;overflow=hidden;rotatable=0;points=[[0,0.5],[1,0.5]];portConstraint=eastwest;" parent="bGiGG2hmjnRHK1uj28jr-248" vertex="1">
          <mxGeometry y="277.56" width="338" height="27" as="geometry" />
        </mxCell>
        <mxCell id="bGiGG2hmjnRHK1uj28jr-260" value="+ next(Runnable)" style="text;strokeColor=none;fillColor=none;align=left;verticalAlign=top;spacingLeft=4;spacingRight=4;overflow=hidden;rotatable=0;points=[[0,0.5],[1,0.5]];portConstraint=eastwest;" parent="bGiGG2hmjnRHK1uj28jr-248" vertex="1">
          <mxGeometry y="304.56" width="338" height="27" as="geometry" />
        </mxCell>
        <mxCell id="bGiGG2hmjnRHK1uj28jr-261" value="+ previous(Runnable)" style="text;strokeColor=none;fillColor=none;align=left;verticalAlign=top;spacingLeft=4;spacingRight=4;overflow=hidden;rotatable=0;points=[[0,0.5],[1,0.5]];portConstraint=eastwest;" parent="bGiGG2hmjnRHK1uj28jr-248" vertex="1">
          <mxGeometry y="331.56" width="338" height="27" as="geometry" />
        </mxCell>
        <mxCell id="bGiGG2hmjnRHK1uj28jr-262" value="+ toggleLoop()" style="text;strokeColor=none;fillColor=none;align=left;verticalAlign=top;spacingLeft=4;spacingRight=4;overflow=hidden;rotatable=0;points=[[0,0.5],[1,0.5]];portConstraint=eastwest;" parent="bGiGG2hmjnRHK1uj28jr-248" vertex="1">
          <mxGeometry y="358.56" width="338" height="27" as="geometry" />
        </mxCell>
        <mxCell id="bGiGG2hmjnRHK1uj28jr-263" value="+ playCurrentSong(Runnable)" style="text;strokeColor=none;fillColor=none;align=left;verticalAlign=top;spacingLeft=4;spacingRight=4;overflow=hidden;rotatable=0;points=[[0,0.5],[1,0.5]];portConstraint=eastwest;" parent="bGiGG2hmjnRHK1uj28jr-248" vertex="1">
          <mxGeometry y="385.56" width="338" height="27" as="geometry" />
        </mxCell>
        <mxCell id="bGiGG2hmjnRHK1uj28jr-264" value="+ playAudio(String, Runnable)" style="text;strokeColor=none;fillColor=none;align=left;verticalAlign=top;spacingLeft=4;spacingRight=4;overflow=hidden;rotatable=0;points=[[0,0.5],[1,0.5]];portConstraint=eastwest;" parent="bGiGG2hmjnRHK1uj28jr-248" vertex="1">
          <mxGeometry y="412.56" width="338" height="27" as="geometry" />
        </mxCell>
        <mxCell id="bGiGG2hmjnRHK1uj28jr-265" value="+ stopPlayback()" style="text;strokeColor=none;fillColor=none;align=left;verticalAlign=top;spacingLeft=4;spacingRight=4;overflow=hidden;rotatable=0;points=[[0,0.5],[1,0.5]];portConstraint=eastwest;" parent="bGiGG2hmjnRHK1uj28jr-248" vertex="1">
          <mxGeometry y="439.56" width="338" height="27" as="geometry" />
        </mxCell>
        <mxCell id="bGiGG2hmjnRHK1uj28jr-266" value="+ pausePlayback()" style="text;strokeColor=none;fillColor=none;align=left;verticalAlign=top;spacingLeft=4;spacingRight=4;overflow=hidden;rotatable=0;points=[[0,0.5],[1,0.5]];portConstraint=eastwest;" parent="bGiGG2hmjnRHK1uj28jr-248" vertex="1">
          <mxGeometry y="466.56" width="338" height="27" as="geometry" />
        </mxCell>
        <mxCell id="bGiGG2hmjnRHK1uj28jr-267" value="+ resumePlayback(Runnable)" style="text;strokeColor=none;fillColor=none;align=left;verticalAlign=top;spacingLeft=4;spacingRight=4;overflow=hidden;rotatable=0;points=[[0,0.5],[1,0.5]];portConstraint=eastwest;" parent="bGiGG2hmjnRHK1uj28jr-248" vertex="1">
          <mxGeometry y="493.56" width="338" height="27" as="geometry" />
        </mxCell>
        <mxCell id="bGiGG2hmjnRHK1uj28jr-268" value="+ setCurrentIndex(int)" style="text;strokeColor=none;fillColor=none;align=left;verticalAlign=top;spacingLeft=4;spacingRight=4;overflow=hidden;rotatable=0;points=[[0,0.5],[1,0.5]];portConstraint=eastwest;" parent="bGiGG2hmjnRHK1uj28jr-248" vertex="1">
          <mxGeometry y="520.56" width="338" height="27" as="geometry" />
        </mxCell>
        <mxCell id="bGiGG2hmjnRHK1uj28jr-269" value="+ toggleLoopSong()" style="text;strokeColor=none;fillColor=none;align=left;verticalAlign=top;spacingLeft=4;spacingRight=4;overflow=hidden;rotatable=0;points=[[0,0.5],[1,0.5]];portConstraint=eastwest;" parent="bGiGG2hmjnRHK1uj28jr-248" vertex="1">
          <mxGeometry y="547.56" width="338" height="27" as="geometry" />
        </mxCell>
        <mxCell id="bGiGG2hmjnRHK1uj28jr-270" value="+ printPlaylist()" style="text;strokeColor=none;fillColor=none;align=left;verticalAlign=top;spacingLeft=4;spacingRight=4;overflow=hidden;rotatable=0;points=[[0,0.5],[1,0.5]];portConstraint=eastwest;" parent="bGiGG2hmjnRHK1uj28jr-248" vertex="1">
          <mxGeometry y="574.56" width="338" height="27" as="geometry" />
        </mxCell>
        <mxCell id="bGiGG2hmjnRHK1uj28jr-271" value="+ clearPlaylist()" style="text;strokeColor=none;fillColor=none;align=left;verticalAlign=top;spacingLeft=4;spacingRight=4;overflow=hidden;rotatable=0;points=[[0,0.5],[1,0.5]];portConstraint=eastwest;" parent="bGiGG2hmjnRHK1uj28jr-248" vertex="1">
          <mxGeometry y="601.56" width="338" height="27" as="geometry" />
        </mxCell>
        <mxCell id="bGiGG2hmjnRHK1uj28jr-272" value="+ moveSongs(String)" style="text;strokeColor=none;fillColor=none;align=left;verticalAlign=top;spacingLeft=4;spacingRight=4;overflow=hidden;rotatable=0;points=[[0,0.5],[1,0.5]];portConstraint=eastwest;" parent="bGiGG2hmjnRHK1uj28jr-248" vertex="1">
          <mxGeometry y="628.56" width="338" height="27" as="geometry" />
        </mxCell>
        <mxCell id="bGiGG2hmjnRHK1uj28jr-273" value="+ printHelp()" style="text;strokeColor=none;fillColor=none;align=left;verticalAlign=top;spacingLeft=4;spacingRight=4;overflow=hidden;rotatable=0;points=[[0,0.5],[1,0.5]];portConstraint=eastwest;" parent="bGiGG2hmjnRHK1uj28jr-248" vertex="1">
          <mxGeometry y="655.56" width="338" height="27" as="geometry" />
        </mxCell>
        <mxCell id="bGiGG2hmjnRHK1uj28jr-274" value="LinkedList" style="swimlane;fontStyle=1;align=center;verticalAlign=top;childLayout=stackLayout;horizontal=1;startSize=28.571428571428573;horizontalStack=0;resizeParent=1;resizeParentMax=0;resizeLast=0;collapsible=0;marginBottom=0;" parent="1" vertex="1">
          <mxGeometry x="1444" y="2360" width="256" height="413.57142857142856" as="geometry" />
        </mxCell>
        <mxCell id="bGiGG2hmjnRHK1uj28jr-275" value="- Node head" style="text;strokeColor=none;fillColor=none;align=left;verticalAlign=top;spacingLeft=4;spacingRight=4;overflow=hidden;rotatable=0;points=[[0,0.5],[1,0.5]];portConstraint=eastwest;" parent="bGiGG2hmjnRHK1uj28jr-274" vertex="1">
          <mxGeometry y="28.571428571428573" width="256" height="29" as="geometry" />
        </mxCell>
        <mxCell id="bGiGG2hmjnRHK1uj28jr-276" value="- Node tail" style="text;strokeColor=none;fillColor=none;align=left;verticalAlign=top;spacingLeft=4;spacingRight=4;overflow=hidden;rotatable=0;points=[[0,0.5],[1,0.5]];portConstraint=eastwest;" parent="bGiGG2hmjnRHK1uj28jr-274" vertex="1">
          <mxGeometry y="57.57142857142857" width="256" height="29" as="geometry" />
        </mxCell>
        <mxCell id="bGiGG2hmjnRHK1uj28jr-277" value="- Node newNode" style="text;strokeColor=none;fillColor=none;align=left;verticalAlign=top;spacingLeft=4;spacingRight=4;overflow=hidden;rotatable=0;points=[[0,0.5],[1,0.5]];portConstraint=eastwest;" parent="bGiGG2hmjnRHK1uj28jr-274" vertex="1">
          <mxGeometry y="86.57142857142857" width="256" height="29" as="geometry" />
        </mxCell>
        <mxCell id="bGiGG2hmjnRHK1uj28jr-278" value="- int size" style="text;strokeColor=none;fillColor=none;align=left;verticalAlign=top;spacingLeft=4;spacingRight=4;overflow=hidden;rotatable=0;points=[[0,0.5],[1,0.5]];portConstraint=eastwest;" parent="bGiGG2hmjnRHK1uj28jr-274" vertex="1">
          <mxGeometry y="115.57142857142857" width="256" height="29" as="geometry" />
        </mxCell>
        <mxCell id="bGiGG2hmjnRHK1uj28jr-279" style="line;strokeWidth=1;fillColor=none;align=left;verticalAlign=middle;spacingTop=-1;spacingLeft=3;spacingRight=3;rotatable=0;labelPosition=right;points=[];portConstraint=eastwest;strokeColor=inherit;" parent="bGiGG2hmjnRHK1uj28jr-274" vertex="1">
          <mxGeometry y="144.57142857142856" width="256" height="8" as="geometry" />
        </mxCell>
        <mxCell id="bGiGG2hmjnRHK1uj28jr-280" value="+ add(Song) : : Node" style="text;strokeColor=none;fillColor=none;align=left;verticalAlign=top;spacingLeft=4;spacingRight=4;overflow=hidden;rotatable=0;points=[[0,0.5],[1,0.5]];portConstraint=eastwest;" parent="bGiGG2hmjnRHK1uj28jr-274" vertex="1">
          <mxGeometry y="152.57142857142856" width="256" height="29" as="geometry" />
        </mxCell>
        <mxCell id="bGiGG2hmjnRHK1uj28jr-281" value="+ addAt(int, Song) : : Node" style="text;strokeColor=none;fillColor=none;align=left;verticalAlign=top;spacingLeft=4;spacingRight=4;overflow=hidden;rotatable=0;points=[[0,0.5],[1,0.5]];portConstraint=eastwest;" parent="bGiGG2hmjnRHK1uj28jr-274" vertex="1">
          <mxGeometry y="181.57142857142856" width="256" height="29" as="geometry" />
        </mxCell>
        <mxCell id="bGiGG2hmjnRHK1uj28jr-282" value="+ remove(int) : : Song" style="text;strokeColor=none;fillColor=none;align=left;verticalAlign=top;spacingLeft=4;spacingRight=4;overflow=hidden;rotatable=0;points=[[0,0.5],[1,0.5]];portConstraint=eastwest;" parent="bGiGG2hmjnRHK1uj28jr-274" vertex="1">
          <mxGeometry y="210.57142857142856" width="256" height="29" as="geometry" />
        </mxCell>
        <mxCell id="bGiGG2hmjnRHK1uj28jr-283" value="+ clear()" style="text;strokeColor=none;fillColor=none;align=left;verticalAlign=top;spacingLeft=4;spacingRight=4;overflow=hidden;rotatable=0;points=[[0,0.5],[1,0.5]];portConstraint=eastwest;" parent="bGiGG2hmjnRHK1uj28jr-274" vertex="1">
          <mxGeometry y="239.57142857142856" width="256" height="29" as="geometry" />
        </mxCell>
        <mxCell id="bGiGG2hmjnRHK1uj28jr-284" value="+ getNodeAt(int) : : Node" style="text;strokeColor=none;fillColor=none;align=left;verticalAlign=top;spacingLeft=4;spacingRight=4;overflow=hidden;rotatable=0;points=[[0,0.5],[1,0.5]];portConstraint=eastwest;" parent="bGiGG2hmjnRHK1uj28jr-274" vertex="1">
          <mxGeometry y="268.57142857142856" width="256" height="29" as="geometry" />
        </mxCell>
        <mxCell id="bGiGG2hmjnRHK1uj28jr-285" value="+ findNode(Song) : : Node" style="text;strokeColor=none;fillColor=none;align=left;verticalAlign=top;spacingLeft=4;spacingRight=4;overflow=hidden;rotatable=0;points=[[0,0.5],[1,0.5]];portConstraint=eastwest;" parent="bGiGG2hmjnRHK1uj28jr-274" vertex="1">
          <mxGeometry y="297.57142857142856" width="256" height="29" as="geometry" />
        </mxCell>
        <mxCell id="bGiGG2hmjnRHK1uj28jr-286" value="+ indexOf(Song)" style="text;strokeColor=none;fillColor=none;align=left;verticalAlign=top;spacingLeft=4;spacingRight=4;overflow=hidden;rotatable=0;points=[[0,0.5],[1,0.5]];portConstraint=eastwest;" parent="bGiGG2hmjnRHK1uj28jr-274" vertex="1">
          <mxGeometry y="326.57142857142856" width="256" height="29" as="geometry" />
        </mxCell>
        <mxCell id="bGiGG2hmjnRHK1uj28jr-287" value="+ makeCircular()" style="text;strokeColor=none;fillColor=none;align=left;verticalAlign=top;spacingLeft=4;spacingRight=4;overflow=hidden;rotatable=0;points=[[0,0.5],[1,0.5]];portConstraint=eastwest;" parent="bGiGG2hmjnRHK1uj28jr-274" vertex="1">
          <mxGeometry y="355.57142857142856" width="256" height="29" as="geometry" />
        </mxCell>
        <mxCell id="bGiGG2hmjnRHK1uj28jr-288" value="+ makeLinear()" style="text;strokeColor=none;fillColor=none;align=left;verticalAlign=top;spacingLeft=4;spacingRight=4;overflow=hidden;rotatable=0;points=[[0,0.5],[1,0.5]];portConstraint=eastwest;" parent="bGiGG2hmjnRHK1uj28jr-274" vertex="1">
          <mxGeometry y="384.57142857142856" width="256" height="29" as="geometry" />
        </mxCell>
        <mxCell id="bGiGG2hmjnRHK1uj28jr-289" value="Node" style="swimlane;fontStyle=1;align=center;verticalAlign=top;childLayout=stackLayout;horizontal=1;startSize=36.8;horizontalStack=0;resizeParent=1;resizeParentMax=0;resizeLast=0;collapsible=0;marginBottom=0;" parent="1" vertex="1">
          <mxGeometry x="990" y="3140" width="183" height="192.8" as="geometry" />
        </mxCell>
        <mxCell id="bGiGG2hmjnRHK1uj28jr-290" value="- Song data" style="text;strokeColor=none;fillColor=none;align=left;verticalAlign=top;spacingLeft=4;spacingRight=4;overflow=hidden;rotatable=0;points=[[0,0.5],[1,0.5]];portConstraint=eastwest;" parent="bGiGG2hmjnRHK1uj28jr-289" vertex="1">
          <mxGeometry y="36.8" width="183" height="37" as="geometry" />
        </mxCell>
        <mxCell id="bGiGG2hmjnRHK1uj28jr-291" value="- Node next" style="text;strokeColor=none;fillColor=none;align=left;verticalAlign=top;spacingLeft=4;spacingRight=4;overflow=hidden;rotatable=0;points=[[0,0.5],[1,0.5]];portConstraint=eastwest;" parent="bGiGG2hmjnRHK1uj28jr-289" vertex="1">
          <mxGeometry y="73.8" width="183" height="37" as="geometry" />
        </mxCell>
        <mxCell id="bGiGG2hmjnRHK1uj28jr-292" value="- Node prev" style="text;strokeColor=none;fillColor=none;align=left;verticalAlign=top;spacingLeft=4;spacingRight=4;overflow=hidden;rotatable=0;points=[[0,0.5],[1,0.5]];portConstraint=eastwest;" parent="bGiGG2hmjnRHK1uj28jr-289" vertex="1">
          <mxGeometry y="110.8" width="183" height="37" as="geometry" />
        </mxCell>
        <mxCell id="bGiGG2hmjnRHK1uj28jr-293" style="line;strokeWidth=1;fillColor=none;align=left;verticalAlign=middle;spacingTop=-1;spacingLeft=3;spacingRight=3;rotatable=0;labelPosition=right;points=[];portConstraint=eastwest;strokeColor=inherit;" parent="bGiGG2hmjnRHK1uj28jr-289" vertex="1">
          <mxGeometry y="147.8" width="183" height="8" as="geometry" />
        </mxCell>
        <mxCell id="bGiGG2hmjnRHK1uj28jr-294" value="+ getData() : : Song" style="text;strokeColor=none;fillColor=none;align=left;verticalAlign=top;spacingLeft=4;spacingRight=4;overflow=hidden;rotatable=0;points=[[0,0.5],[1,0.5]];portConstraint=eastwest;" parent="bGiGG2hmjnRHK1uj28jr-289" vertex="1">
          <mxGeometry y="155.8" width="183" height="37" as="geometry" />
        </mxCell>
        <mxCell id="bGiGG2hmjnRHK1uj28jr-295" value="Song" style="swimlane;fontStyle=1;align=center;verticalAlign=top;childLayout=stackLayout;horizontal=1;startSize=34.666666666666664;horizontalStack=0;resizeParent=1;resizeParentMax=0;resizeLast=0;collapsible=0;marginBottom=0;" parent="1" vertex="1">
          <mxGeometry x="222" y="3115.13" width="244" height="217.66666666666666" as="geometry" />
        </mxCell>
        <mxCell id="bGiGG2hmjnRHK1uj28jr-296" value="- String filePath" style="text;strokeColor=none;fillColor=none;align=left;verticalAlign=top;spacingLeft=4;spacingRight=4;overflow=hidden;rotatable=0;points=[[0,0.5],[1,0.5]];portConstraint=eastwest;" parent="bGiGG2hmjnRHK1uj28jr-295" vertex="1">
          <mxGeometry y="34.666666666666664" width="244" height="35" as="geometry" />
        </mxCell>
        <mxCell id="bGiGG2hmjnRHK1uj28jr-297" style="line;strokeWidth=1;fillColor=none;align=left;verticalAlign=middle;spacingTop=-1;spacingLeft=3;spacingRight=3;rotatable=0;labelPosition=right;points=[];portConstraint=eastwest;strokeColor=inherit;" parent="bGiGG2hmjnRHK1uj28jr-295" vertex="1">
          <mxGeometry y="69.66666666666666" width="244" height="8" as="geometry" />
        </mxCell>
        <mxCell id="bGiGG2hmjnRHK1uj28jr-298" value="+ getName() : : String" style="text;strokeColor=none;fillColor=none;align=left;verticalAlign=top;spacingLeft=4;spacingRight=4;overflow=hidden;rotatable=0;points=[[0,0.5],[1,0.5]];portConstraint=eastwest;" parent="bGiGG2hmjnRHK1uj28jr-295" vertex="1">
          <mxGeometry y="77.66666666666666" width="244" height="35" as="geometry" />
        </mxCell>
        <mxCell id="bGiGG2hmjnRHK1uj28jr-299" value="+ getFilePath() : : String" style="text;strokeColor=none;fillColor=none;align=left;verticalAlign=top;spacingLeft=4;spacingRight=4;overflow=hidden;rotatable=0;points=[[0,0.5],[1,0.5]];portConstraint=eastwest;" parent="bGiGG2hmjnRHK1uj28jr-295" vertex="1">
          <mxGeometry y="112.66666666666666" width="244" height="35" as="geometry" />
        </mxCell>
        <mxCell id="bGiGG2hmjnRHK1uj28jr-300" value="+ toString()" style="text;strokeColor=none;fillColor=none;align=left;verticalAlign=top;spacingLeft=4;spacingRight=4;overflow=hidden;rotatable=0;points=[[0,0.5],[1,0.5]];portConstraint=eastwest;" parent="bGiGG2hmjnRHK1uj28jr-295" vertex="1">
          <mxGeometry y="147.66666666666666" width="244" height="35" as="geometry" />
        </mxCell>
        <mxCell id="bGiGG2hmjnRHK1uj28jr-301" value="+ equals(Object) : : boolean" style="text;strokeColor=none;fillColor=none;align=left;verticalAlign=top;spacingLeft=4;spacingRight=4;overflow=hidden;rotatable=0;points=[[0,0.5],[1,0.5]];portConstraint=eastwest;" parent="bGiGG2hmjnRHK1uj28jr-295" vertex="1">
          <mxGeometry y="182.66666666666666" width="244" height="35" as="geometry" />
        </mxCell>
        <mxCell id="bGiGG2hmjnRHK1uj28jr-302" value="Colors" style="swimlane;fontStyle=1;align=center;verticalAlign=top;childLayout=stackLayout;horizontal=1;startSize=31.11111111111111;horizontalStack=0;resizeParent=1;resizeParentMax=0;resizeLast=0;collapsible=0;marginBottom=0;" parent="1" vertex="1">
          <mxGeometry x="1040" y="2690" width="291" height="287.1111111111111" as="geometry" />
        </mxCell>
        <mxCell id="bGiGG2hmjnRHK1uj28jr-303" value="+ RESET: String" style="text;strokeColor=none;fillColor=none;align=left;verticalAlign=top;spacingLeft=4;spacingRight=4;overflow=hidden;rotatable=0;points=[[0,0.5],[1,0.5]];portConstraint=eastwest;" parent="bGiGG2hmjnRHK1uj28jr-302" vertex="1">
          <mxGeometry y="31.11111111111111" width="291" height="31" as="geometry" />
        </mxCell>
        <mxCell id="bGiGG2hmjnRHK1uj28jr-304" value="+ GREEN: String" style="text;strokeColor=none;fillColor=none;align=left;verticalAlign=top;spacingLeft=4;spacingRight=4;overflow=hidden;rotatable=0;points=[[0,0.5],[1,0.5]];portConstraint=eastwest;" parent="bGiGG2hmjnRHK1uj28jr-302" vertex="1">
          <mxGeometry y="62.111111111111114" width="291" height="31" as="geometry" />
        </mxCell>
        <mxCell id="bGiGG2hmjnRHK1uj28jr-305" value="+ RED: String" style="text;strokeColor=none;fillColor=none;align=left;verticalAlign=top;spacingLeft=4;spacingRight=4;overflow=hidden;rotatable=0;points=[[0,0.5],[1,0.5]];portConstraint=eastwest;" parent="bGiGG2hmjnRHK1uj28jr-302" vertex="1">
          <mxGeometry y="93.11111111111111" width="291" height="31" as="geometry" />
        </mxCell>
        <mxCell id="bGiGG2hmjnRHK1uj28jr-306" value="+ YELLOW: String" style="text;strokeColor=none;fillColor=none;align=left;verticalAlign=top;spacingLeft=4;spacingRight=4;overflow=hidden;rotatable=0;points=[[0,0.5],[1,0.5]];portConstraint=eastwest;" parent="bGiGG2hmjnRHK1uj28jr-302" vertex="1">
          <mxGeometry y="124.11111111111111" width="291" height="31" as="geometry" />
        </mxCell>
        <mxCell id="bGiGG2hmjnRHK1uj28jr-307" value="+ BLUE: String" style="text;strokeColor=none;fillColor=none;align=left;verticalAlign=top;spacingLeft=4;spacingRight=4;overflow=hidden;rotatable=0;points=[[0,0.5],[1,0.5]];portConstraint=eastwest;" parent="bGiGG2hmjnRHK1uj28jr-302" vertex="1">
          <mxGeometry y="155.11111111111111" width="291" height="31" as="geometry" />
        </mxCell>
        <mxCell id="bGiGG2hmjnRHK1uj28jr-308" value="+ BOLD_GREEN: String" style="text;strokeColor=none;fillColor=none;align=left;verticalAlign=top;spacingLeft=4;spacingRight=4;overflow=hidden;rotatable=0;points=[[0,0.5],[1,0.5]];portConstraint=eastwest;" parent="bGiGG2hmjnRHK1uj28jr-302" vertex="1">
          <mxGeometry y="186.11111111111111" width="291" height="31" as="geometry" />
        </mxCell>
        <mxCell id="bGiGG2hmjnRHK1uj28jr-309" value="+ BG_GREEN: String" style="text;strokeColor=none;fillColor=none;align=left;verticalAlign=top;spacingLeft=4;spacingRight=4;overflow=hidden;rotatable=0;points=[[0,0.5],[1,0.5]];portConstraint=eastwest;" parent="bGiGG2hmjnRHK1uj28jr-302" vertex="1">
          <mxGeometry y="217.11111111111111" width="291" height="31" as="geometry" />
        </mxCell>
        <mxCell id="bGiGG2hmjnRHK1uj28jr-310" style="line;strokeWidth=1;fillColor=none;align=left;verticalAlign=middle;spacingTop=-1;spacingLeft=3;spacingRight=3;rotatable=0;labelPosition=right;points=[];portConstraint=eastwest;strokeColor=inherit;" parent="bGiGG2hmjnRHK1uj28jr-302" vertex="1">
          <mxGeometry y="248.11111111111111" width="291" height="8" as="geometry" />
        </mxCell>
        <mxCell id="bGiGG2hmjnRHK1uj28jr-311" value="+ colorize(String, String) : : String" style="text;strokeColor=none;fillColor=none;align=left;verticalAlign=top;spacingLeft=4;spacingRight=4;overflow=hidden;rotatable=0;points=[[0,0.5],[1,0.5]];portConstraint=eastwest;" parent="bGiGG2hmjnRHK1uj28jr-302" vertex="1">
          <mxGeometry y="256.1111111111111" width="291" height="31" as="geometry" />
        </mxCell>
        <mxCell id="bGiGG2hmjnRHK1uj28jr-312" value="uses" style="curved=1;dashed=1;startArrow=none;endArrow=open;endSize=12;exitX=1.013;exitY=-0.08;entryX=-0.005;entryY=-0.326;rounded=0;entryDx=0;entryDy=0;entryPerimeter=0;exitDx=0;exitDy=0;exitPerimeter=0;" parent="1" source="bGiGG2hmjnRHK1uj28jr-243" target="bGiGG2hmjnRHK1uj28jr-259" edge="1">
          <mxGeometry relative="1" as="geometry">
            <Array as="points" />
            <mxPoint x="190" y="2783.5714285714284" as="sourcePoint" />
            <mxPoint x="716" y="2370" as="targetPoint" />
          </mxGeometry>
        </mxCell>
        <mxCell id="bGiGG2hmjnRHK1uj28jr-313" value="uses" style="curved=1;dashed=1;startArrow=none;endArrow=open;endSize=12;exitX=1;exitY=0.5;entryX=-0.024;entryY=-0.097;rounded=0;exitDx=0;exitDy=0;entryDx=0;entryDy=0;entryPerimeter=0;" parent="1" source="bGiGG2hmjnRHK1uj28jr-264" target="bGiGG2hmjnRHK1uj28jr-305" edge="1">
          <mxGeometry relative="1" as="geometry">
            <Array as="points" />
          </mxGeometry>
        </mxCell>
        <mxCell id="bGiGG2hmjnRHK1uj28jr-314" value="contains" style="curved=1;startArrow=none;endArrow=open;endSize=12;exitX=1.028;exitY=-0.371;entryX=0;entryY=0.5;rounded=0;exitDx=0;exitDy=0;exitPerimeter=0;entryDx=0;entryDy=0;" parent="1" source="bGiGG2hmjnRHK1uj28jr-253" target="bGiGG2hmjnRHK1uj28jr-275" edge="1">
          <mxGeometry relative="1" as="geometry" />
        </mxCell>
        <mxCell id="bGiGG2hmjnRHK1uj28jr-315" value="references" style="startArrow=none;endArrow=open;endSize=12;exitX=0.417;exitY=1.568;entryX=-0.044;entryY=0.132;rounded=0;exitDx=0;exitDy=0;exitPerimeter=0;entryDx=0;entryDy=0;entryPerimeter=0;edgeStyle=elbowEdgeStyle;elbow=vertical;" parent="1" source="bGiGG2hmjnRHK1uj28jr-273" target="bGiGG2hmjnRHK1uj28jr-292" edge="1">
          <mxGeometry relative="1" as="geometry" />
        </mxCell>
        <mxCell id="bGiGG2hmjnRHK1uj28jr-316" value="contains" style="startArrow=diamondThin;startSize=14;startFill=0;endArrow=open;endSize=12;exitX=0.5;exitY=1;entryX=1;entryY=0.27;rounded=0;edgeStyle=orthogonalEdgeStyle;elbow=vertical;" parent="1" source="bGiGG2hmjnRHK1uj28jr-274" target="bGiGG2hmjnRHK1uj28jr-289" edge="1">
          <mxGeometry relative="1" as="geometry" />
        </mxCell>
        <mxCell id="bGiGG2hmjnRHK1uj28jr-317" value="holds" style="startArrow=diamondThin;startSize=14;startFill=1;endArrow=none;entryX=1;entryY=0.5;rounded=0;entryDx=0;entryDy=0;exitX=0;exitY=0.5;exitDx=0;exitDy=0;edgeStyle=entityRelationEdgeStyle;elbow=vertical;" parent="1" source="bGiGG2hmjnRHK1uj28jr-294" target="bGiGG2hmjnRHK1uj28jr-301" edge="1">
          <mxGeometry relative="1" as="geometry">
            <mxPoint x="990" y="3330" as="sourcePoint" />
          </mxGeometry>
        </mxCell>
      </root>
    </mxGraphModel>
  </diagram>
</mxfile>
